<?xml version="1.0" encoding="UTF-8" standalone="no"?>
<!--suppress XmlHighlighting, XmlUnusedNamespaceDeclaration -->

<svg
   xmlns:dc="http://purl.org/dc/elements/1.1/"
   xmlns:cc="http://creativecommons.org/ns#"
   xmlns:rdf="http://www.w3.org/1999/02/22-rdf-syntax-ns#"
   xmlns:svg="http://www.w3.org/2000/svg"
   xmlns="http://www.w3.org/2000/svg"
   xmlns:sodipodi="http://sodipodi.sourceforge.net/DTD/sodipodi-0.dtd"
   xmlns:inkscape="http://www.inkscape.org/namespaces/inkscape"
   width="24"
   height="24"
   viewBox="0 0 24 24"
   version="1.1"
   id="svg26"
   sodipodi:docname="imidpoints_mono.svg"
   inkscape:version="0.92.3 (2405546, 2018-03-11)"
   inkscape:export-xdpi="2048"
   inkscape:export-ydpi="2048">
  <metadata
     id="metadata32">
    <rdf:RDF>
      <cc:Work
         rdf:about="">
        <dc:format>image/svg+xml</dc:format>
        <dc:type
           rdf:resource="http://purl.org/dc/dcmitype/StillImage" />
        <dc:title />
      </cc:Work>
    </rdf:RDF>
  </metadata>
  <defs
     id="defs30">
    <marker
       inkscape:stockid="Arrow1Lstart"
       orient="auto"
       refY="0.0"
       refX="0.0"
       id="Arrow1Lstart"
       style="overflow:visible"
       inkscape:isstock="true">
      <path
         id="path4686"
         d="M 0.0,0.0 L 5.0,-5.0 L -12.5,0.0 L 5.0,5.0 L 0.0,0.0 z "
         style="fill-rule:evenodd;stroke:#ffffff;stroke-width:1pt;stroke-opacity:1;fill:#bfbfbf;fill-opacity:1"
         transform="scale(0.8) translate(12.5,0)" />
    </marker>
    <filter
       style="color-interpolation-filters:sRGB;"
       inkscape:label="Greyscale"
       id="filter879">
      <feColorMatrix
         values="0.21 0.72 0.072 0 0 0.21 0.72 0.072 0 0 0.21 0.72 0.072 0 0 0 0 0 1 0 "
         id="feColorMatrix877"
         result="fbSourceGraphic" />
      <feColorMatrix
         result="fbSourceGraphicAlpha"
         in="fbSourceGraphic"
         values="0 0 0 -1 0 0 0 0 -1 0 0 0 0 -1 0 0 0 0 1 0"
         id="feColorMatrix913" />
      <feColorMatrix
         id="feColorMatrix915"
         values="0.21 0.72 0.072 0 0 0.21 0.72 0.072 0 0 0.21 0.72 0.072 0 0 0 0 0 1 0 "
         in="fbSourceGraphic" />
    </filter>
    <filter
       style="color-interpolation-filters:sRGB;"
       inkscape:label="Greyscale"
       id="filter883">
      <feColorMatrix
         values="0.21 0.72 0.072 0 0 0.21 0.72 0.072 0 0 0.21 0.72 0.072 0 0 0 0 0 1 0 "
         id="feColorMatrix881"
         result="fbSourceGraphic" />
      <feColorMatrix
         result="fbSourceGraphicAlpha"
         in="fbSourceGraphic"
         values="0 0 0 -1 0 0 0 0 -1 0 0 0 0 -1 0 0 0 0 1 0"
         id="feColorMatrix917" />
      <feColorMatrix
         id="feColorMatrix919"
         values="0.21 0.72 0.072 0 0 0.21 0.72 0.072 0 0 0.21 0.72 0.072 0 0 0 0 0 1 0 "
         in="fbSourceGraphic" />
    </filter>
    <filter
       style="color-interpolation-filters:sRGB;"
       inkscape:label="Greyscale"
       id="filter887">
      <feColorMatrix
         values="0.21 0.72 0.072 0 0 0.21 0.72 0.072 0 0 0.21 0.72 0.072 0 0 0 0 0 1 0 "
         id="feColorMatrix885"
         result="fbSourceGraphic" />
      <feColorMatrix
         result="fbSourceGraphicAlpha"
         in="fbSourceGraphic"
         values="0 0 0 -1 0 0 0 0 -1 0 0 0 0 -1 0 0 0 0 1 0"
         id="feColorMatrix921" />
      <feColorMatrix
         id="feColorMatrix923"
         values="0.21 0.72 0.072 0 0 0.21 0.72 0.072 0 0 0.21 0.72 0.072 0 0 0 0 0 1 0 "
         in="fbSourceGraphic" />
    </filter>
    <filter
       style="color-interpolation-filters:sRGB;"
       inkscape:label="Greyscale"
       id="filter891">
      <feColorMatrix
         values="0.21 0.72 0.072 0 0 0.21 0.72 0.072 0 0 0.21 0.72 0.072 0 0 0 0 0 1 0 "
         id="feColorMatrix889"
         result="fbSourceGraphic" />
      <feColorMatrix
         result="fbSourceGraphicAlpha"
         in="fbSourceGraphic"
         values="0 0 0 -1 0 0 0 0 -1 0 0 0 0 -1 0 0 0 0 1 0"
         id="feColorMatrix925" />
      <feColorMatrix
         id="feColorMatrix927"
         values="0.21 0.72 0.072 0 0 0.21 0.72 0.072 0 0 0.21 0.72 0.072 0 0 0 0 0 1 0 "
         in="fbSourceGraphic" />
    </filter>
    <filter
       style="color-interpolation-filters:sRGB;"
       inkscape:label="Greyscale"
       id="filter895">
      <feColorMatrix
         values="0.21 0.72 0.072 0 0 0.21 0.72 0.072 0 0 0.21 0.72 0.072 0 0 0 0 0 1 0 "
         id="feColorMatrix893"
         result="fbSourceGraphic" />
      <feColorMatrix
         result="fbSourceGraphicAlpha"
         in="fbSourceGraphic"
         values="0 0 0 -1 0 0 0 0 -1 0 0 0 0 -1 0 0 0 0 1 0"
         id="feColorMatrix929" />
      <feColorMatrix
         id="feColorMatrix931"
         values="0.21 0.72 0.072 0 0 0.21 0.72 0.072 0 0 0.21 0.72 0.072 0 0 0 0 0 1 0 "
         in="fbSourceGraphic" />
    </filter>
    <filter
       style="color-interpolation-filters:sRGB;"
       inkscape:label="Greyscale"
       id="filter899">
      <feColorMatrix
         values="0.21 0.72 0.072 0 0 0.21 0.72 0.072 0 0 0.21 0.72 0.072 0 0 0 0 0 1 0 "
         id="feColorMatrix897"
         result="fbSourceGraphic" />
      <feColorMatrix
         result="fbSourceGraphicAlpha"
         in="fbSourceGraphic"
         values="0 0 0 -1 0 0 0 0 -1 0 0 0 0 -1 0 0 0 0 1 0"
         id="feColorMatrix933" />
      <feColorMatrix
         id="feColorMatrix935"
         values="0.21 0.72 0.072 0 0 0.21 0.72 0.072 0 0 0.21 0.72 0.072 0 0 0 0 0 1 0 "
         in="fbSourceGraphic" />
    </filter>
    <filter
       style="color-interpolation-filters:sRGB;"
       inkscape:label="Greyscale"
       id="filter903">
      <feColorMatrix
         values="0.21 0.72 0.072 0 0 0.21 0.72 0.072 0 0 0.21 0.72 0.072 0 0 0 0 0 1 0 "
         id="feColorMatrix901"
         result="fbSourceGraphic" />
      <feColorMatrix
         result="fbSourceGraphicAlpha"
         in="fbSourceGraphic"
         values="0 0 0 -1 0 0 0 0 -1 0 0 0 0 -1 0 0 0 0 1 0"
         id="feColorMatrix937" />
      <feColorMatrix
         id="feColorMatrix939"
         values="0.21 0.72 0.072 0 0 0.21 0.72 0.072 0 0 0.21 0.72 0.072 0 0 0 0 0 1 0 "
         in="fbSourceGraphic" />
    </filter>
    <filter
       style="color-interpolation-filters:sRGB;"
       inkscape:label="Greyscale"
       id="filter907">
      <feColorMatrix
         values="0.21 0.72 0.072 0 0 0.21 0.72 0.072 0 0 0.21 0.72 0.072 0 0 0 0 0 1 0 "
         id="feColorMatrix905"
         result="fbSourceGraphic" />
      <feColorMatrix
         result="fbSourceGraphicAlpha"
         in="fbSourceGraphic"
         values="0 0 0 -1 0 0 0 0 -1 0 0 0 0 -1 0 0 0 0 1 0"
         id="feColorMatrix941" />
      <feColorMatrix
         id="feColorMatrix943"
         values="0.21 0.72 0.072 0 0 0.21 0.72 0.072 0 0 0.21 0.72 0.072 0 0 0 0 0 1 0 "
         in="fbSourceGraphic" />
    </filter>
    <filter
       style="color-interpolation-filters:sRGB;"
       inkscape:label="Greyscale"
       id="filter911">
      <feColorMatrix
         values="0.21 0.72 0.072 0 0 0.21 0.72 0.072 0 0 0.21 0.72 0.072 0 0 0 0 0 1 0 "
         id="feColorMatrix909"
         result="fbSourceGraphic" />
      <feColorMatrix
         result="fbSourceGraphicAlpha"
         in="fbSourceGraphic"
         values="0 0 0 -1 0 0 0 0 -1 0 0 0 0 -1 0 0 0 0 1 0"
         id="feColorMatrix945" />
      <feColorMatrix
         id="feColorMatrix947"
         values="0.21 0.72 0.072 0 0 0.21 0.72 0.072 0 0 0.21 0.72 0.072 0 0 0 0 0 1 0 "
         in="fbSourceGraphic" />
    </filter>
  </defs>
  <sodipodi:namedview
     pagecolor="#ffffff"
     bordercolor="#666666"
     borderopacity="1"
     objecttolerance="10"
     gridtolerance="10"
     guidetolerance="10"
     inkscape:pageopacity="0"
     inkscape:pageshadow="2"
     inkscape:window-width="1920"
     inkscape:window-height="1137"
     id="namedview28"
     showgrid="false"
     inkscape:zoom="16"
     inkscape:cx="-15.387031"
     inkscape:cy="1.7669706"
     inkscape:window-x="1272"
     inkscape:window-y="-8"
     inkscape:window-maximized="1"
     inkscape:current-layer="svg26" />
  <rect
     style="fill:#000000;fill-opacity:1;stroke:none;stroke-width:1.69345045;stroke-linecap:square;stroke-linejoin:round;stroke-miterlimit:4;stroke-dasharray:13.54760367, 1.69345045999999999;stroke-dashoffset:0;stroke-opacity:0.50196078;paint-order:normal"
     id="rect4572"
     width="24.311012"
     height="24.023354"
     x="0.030591372"
     y="0.083871253" />
  <path
     style="display:inline;fill:#ffffff;fill-opacity:0.43529412;fill-rule:evenodd;stroke:none;stroke-width:2.02189279;stroke-linecap:square;stroke-linejoin:miter;stroke-miterlimit:4;stroke-dasharray:none;stroke-opacity:1"
     d="m 16.502518,1.1497504 -1.400391,3.3886719 a 7.9549513,7.9107571 0 0 1 5.302734,7.7226557 7.9549513,7.9107571 0 0 1 -8.083984,7.642578 7.9549513,7.9107571 0 0 1 -3.257813,-0.761718 L 7.498611,22.921234 C 13.56747,25.318038 20.412536,22.465259 22.887283,16.509125 25.35703,10.548835 22.48839,3.7517511 16.502518,1.1497504 Z"
     id="path3797-4-5"
     inkscape:connector-curvature="0" />
  <path
     style="display:inline;fill:#ffffff;fill-opacity:0.22325581;fill-rule:evenodd;stroke:none;stroke-width:1.32200003;stroke-linecap:round;stroke-linejoin:bevel;stroke-miterlimit:4;stroke-dasharray:5.288, 2.64400000000000013;stroke-dashoffset:0;stroke-opacity:1;paint-order:normal"
     d="M 11.826736,0.3099067 A 11.965281,11.82733 22.5 0 0 1.129471,7.5481879 l 3.878906,1.6699224 a 7.9549513,7.9107571 0 0 1 7.847656,-5.1250005 7.9549513,7.9107571 0 0 1 2.246094,0.4453125 L 16.502518,1.1497504 A 11.965281,11.82733 22.5 0 0 11.826736,0.3099067 Z M 0.29744,10.854828 a 11.965281,11.82733 22.5 0 0 -0.023438,0.183594 c 0.0052,-0.06124 0.017337,-0.122326 0.023438,-0.183594 z"
     id="path3797-8-1-4-9"
     inkscape:connector-curvature="0" />
  <path
     style="display:inline;fill:#ffffff;fill-opacity:1;fill-rule:evenodd;stroke:#404040;stroke-width:0;stroke-linecap:square;stroke-linejoin:miter;stroke-miterlimit:4;stroke-dasharray:none;stroke-dashoffset:0;stroke-opacity:1"
     d="M 1.129471,7.5481879 C -1.267334,13.617046 1.542492,20.446443 7.498611,22.921234 L 9.063064,19.141938 C 6.2655264,17.84317 4.5036632,15.065679 4.500564,11.995453 L 4.518143,11.460297 C 4.5711073,10.69318 4.7362555,9.937841 5.008377,9.2181103 Z"
     id="path3797-8-1-3-5-1"
     inkscape:connector-curvature="0"
     sodipodi:nodetypes="ccccccc" />
  <path
     d="M -3.6787556,5.5056468 18.494353,-3.6787556 27.678756,18.494353 5.5056468,27.678756 Z"
     id="path22"
     inkscape:connector-curvature="0"
     style="fill:none" />
  <path
     style="display:inline;fill:#ffffff;fill-opacity:0.24705882;fill-rule:evenodd;stroke:none;stroke-width:2.02189279;stroke-linecap:square;stroke-linejoin:miter;stroke-miterlimit:4;stroke-dasharray:none;stroke-opacity:1"
     d="m -25.497487,3.3997504 c 5.985872,2.6020008 8.855485,9.3994186 6.385738,15.3597086 -2.474747,5.956134 -9.32094,8.808311 -15.389799,6.411508 l 4.522406,-10.918041 z"
     id="path3797-4"
     inkscape:connector-curvature="0"
     sodipodi:nodetypes="ccccc" />
  <path
     inkscape:connector-curvature="0"
     style="display:inline;fill:#009688;fill-opacity:0;fill-rule:evenodd;stroke:none;stroke-width:2.5;stroke-linecap:round;stroke-linejoin:round;stroke-miterlimit:4;stroke-dasharray:5, 2.5;stroke-dashoffset:0;stroke-opacity:1"
     d="M 16.551421,1.0724427 A 11.965281,11.82733 22.5 0 0 1.1649562,7.5006565 11.965281,11.82733 22.5 0 0 7.5135684,22.916513 L 12.035972,11.998471 Z"
     id="path3797-8-1-0" />
  <path
     style="fill:#ffffff;fill-opacity:0.43720931;stroke:none;stroke-width:2.47023416;stroke-linecap:square;stroke-linejoin:round;stroke-miterlimit:4;stroke-dasharray:19.76187209, 2.47023402999999986;stroke-dashoffset:0;stroke-opacity:0.50196078;paint-order:normal"
     id="path4886"
     sodipodi:type="arc"
     sodipodi:cx="12.454951"
     sodipodi:cy="11.994243"
     sodipodi:rx="7.9549513"
     sodipodi:ry="7.9107571"
     sodipodi:start="3.2090496"
     sodipodi:end="3.1413658"
     sodipodi:open="true"
     d="m 4.5180924,11.461012 a 7.9549513,7.9107571 0 0 1 8.3386996,-7.367427 7.9549513,7.9107571 0 0 1 7.548617,8.166528 7.9549513,7.9107571 0 0 1 -8.083252,7.643784 7.9549513,7.9107571 0 0 1 -7.8221568,-7.90786" />
  <path
     style="display:inline;fill:#ffffff;fill-opacity:0.39215687;fill-rule:evenodd;stroke:none;stroke-width:1.78999996;stroke-linecap:square;stroke-linejoin:miter;stroke-miterlimit:4;stroke-dasharray:none;stroke-opacity:1"
     d="m 6.4496515,12.811896 a 6.1388852,6.2104868 0 0 0 0.015625,0.132813 6.1388852,6.2104868 0 0 0 0.1347657,0.605468 6.1388852,6.2104868 0 0 0 0.1933593,0.589844 6.1388852,6.2104868 0 0 0 0.25,0.566406 6.1388852,6.2104868 0 0 0 0.3046879,0.539063 6.1388852,6.2104868 0 0 0 0.355468,0.505859 6.1388852,6.2104868 0 0 0 0.404297,0.466797 6.1388852,6.2104868 0 0 0 0.449219,0.423828 6.1388852,6.2104868 0 0 0 0.488281,0.376953 6.1388852,6.2104868 0 0 0 0.523438,0.324219 6.1388852,6.2104868 0 0 0 0.5507806,0.271485 6.1388852,6.2104868 0 0 0 0.576172,0.21289 6.1388852,6.2104868 0 0 0 0.595703,0.154297 6.1388852,6.2104868 0 0 0 0.605469,0.09375 6.1388852,6.2104868 0 0 0 0.613281,0.03125 6.1388852,6.2104868 0 0 0 0.328125,-0.0098 6.1388852,6.2104868 0 0 0 0.609375,-0.0625 6.1388852,6.2104868 0 0 0 0.601563,-0.125 6.1388852,6.2104868 0 0 0 0.585937,-0.185547 6.1388852,6.2104868 0 0 0 0.564453,-0.244141 6.1388852,6.2104868 0 0 0 0.53711,-0.298828 6.1388852,6.2104868 0 0 0 0.505859,-0.353516 6.1388852,6.2104868 0 0 0 0.466797,-0.40039 6.1388852,6.2104868 0 0 0 0.425781,-0.447266 6.1388852,6.2104868 0 0 0 0.380859,-0.488281 6.1388852,6.2104868 0 0 0 0.330078,-0.523438 6.1388852,6.2104868 0 0 0 0.275391,-0.552734 6.1388852,6.2104868 0 0 0 0.220703,-0.580078 6.1388852,6.2104868 0 0 0 0.16211,-0.597657 6.1388852,6.2104868 0 0 0 0.07226,-0.425781 z"
     id="path3797-2-4-8"
     inkscape:connector-curvature="0" />
  <path
     style="display:inline;fill:#ffffff;fill-opacity:1;fill-rule:evenodd;stroke:none;stroke-width:1.78999996;stroke-linecap:square;stroke-linejoin:miter;stroke-miterlimit:4;stroke-dasharray:none;stroke-opacity:1"
     d="M 18.621526,11.436896 A 6.1388852,6.2104868 0 0 0 18.601995,11.128303 6.1388852,6.2104868 0 0 0 18.500432,10.516974 6.1388852,6.2104868 0 0 0 18.338323,9.917365 6.1388852,6.2104868 0 0 0 18.11762,9.33924 6.1388852,6.2104868 0 0 0 17.840276,8.784553 6.1388852,6.2104868 0 0 0 17.510198,8.261115 6.1388852,6.2104868 0 0 0 17.131292,7.772834 6.1388852,6.2104868 0 0 0 16.705511,7.325568 6.1388852,6.2104868 0 0 0 16.236761,6.925177 6.1388852,6.2104868 0 0 0 15.730901,6.573615 6.1388852,6.2104868 0 0 0 15.193792,6.272834 6.1388852,6.2104868 0 0 0 14.629339,6.030646 6.1388852,6.2104868 0 0 0 14.043401,5.845099 6.1388852,6.2104868 0 0 0 13.443792,5.718146 a 6.1388852,6.2104868 0 0 0 -0.611328,-0.0625 6.1388852,6.2104868 0 0 0 -0.328125,-0.0098 6.1388852,6.2104868 0 0 0 -0.611328,0.03125 6.1388852,6.2104868 0 0 0 -0.607422,0.09375 6.1388852,6.2104868 0 0 0 -0.59375,0.154296 6.1388852,6.2104868 0 0 0 -0.576172,0.214844 6.1388852,6.2104868 0 0 0 -0.5527346,0.269532 6.1388852,6.2104868 0 0 0 -0.523437,0.326171 6.1388852,6.2104868 0 0 0 -0.488281,0.375 6.1388852,6.2104868 0 0 0 -0.447266,0.423829 6.1388852,6.2104868 0 0 0 -0.404297,0.466796 6.1388852,6.2104868 0 0 0 -0.357422,0.50586 6.1388852,6.2104868 0 0 0 -0.3046872,0.539062 6.1388852,6.2104868 0 0 0 -0.25,0.566406 6.1388852,6.2104868 0 0 0 -0.1933594,0.589844 6.1388852,6.2104868 0 0 0 -0.1328125,0.605469 6.1388852,6.2104868 0 0 0 -0.074219,0.615234 6.1388852,6.2104868 0 0 0 0,0.01367 z"
     id="path4841"
     inkscape:connector-curvature="0" />
</svg>
