<?xml version="1.0" encoding="UTF-8" standalone="no"?>
<!--suppress XmlHighlighting, XmlUnusedNamespaceDeclaration -->

<svg
   xmlns:dc="http://purl.org/dc/elements/1.1/"
   xmlns:cc="http://creativecommons.org/ns#"
   xmlns:rdf="http://www.w3.org/1999/02/22-rdf-syntax-ns#"
   xmlns:svg="http://www.w3.org/2000/svg"
   xmlns="http://www.w3.org/2000/svg"
   xmlns:sodipodi="http://sodipodi.sourceforge.net/DTD/sodipodi-0.dtd"
   xmlns:inkscape="http://www.inkscape.org/namespaces/inkscape"
   width="24"
   height="24"
   viewBox="0 0 24 24"
   version="1.1"
   id="svg26"
   sodipodi:docname="imidpoints1.svg"
   inkscape:version="0.92.3 (2405546, 2018-03-11)"
   inkscape:export-filename="C:\Users\Forrest\Documents\GitHub\SuntimesCalendars\app\src\main\artwork\suntimes-calendar31.png"
   inkscape:export-xdpi="2048"
   inkscape:export-ydpi="2048">
  <metadata
     id="metadata32">
    <rdf:RDF>
      <cc:Work
         rdf:about="">
        <dc:format>image/svg+xml</dc:format>
        <dc:type
           rdf:resource="http://purl.org/dc/dcmitype/StillImage" />
        <dc:title />
      </cc:Work>
    </rdf:RDF>
  </metadata>
  <defs
     id="defs30">
    <marker
       inkscape:stockid="Arrow1Lstart"
       orient="auto"
       refY="0.0"
       refX="0.0"
       id="Arrow1Lstart"
       style="overflow:visible"
       inkscape:isstock="true">
      <path
         id="path4686"
         d="M 0.0,0.0 L 5.0,-5.0 L -12.5,0.0 L 5.0,5.0 L 0.0,0.0 z "
         style="fill-rule:evenodd;stroke:#ffffff;stroke-width:1pt;stroke-opacity:1;fill:#bfbfbf;fill-opacity:1"
         transform="scale(0.8) translate(12.5,0)" />
    </marker>
  </defs>
  <sodipodi:namedview
     pagecolor="#ffffff"
     bordercolor="#666666"
     borderopacity="1"
     objecttolerance="10"
     gridtolerance="10"
     guidetolerance="10"
     inkscape:pageopacity="0"
     inkscape:pageshadow="2"
     inkscape:window-width="1920"
     inkscape:window-height="1137"
     id="namedview28"
     showgrid="false"
     inkscape:zoom="10.28125"
     inkscape:cx="-9.1317532"
     inkscape:cy="6.6850181"
     inkscape:window-x="1272"
     inkscape:window-y="-8"
     inkscape:window-maximized="1"
     inkscape:current-layer="svg26" />
  <path
     d="M -3.6787556,5.5056468 18.494353,-3.6787556 27.678756,18.494353 5.5056468,27.678756 Z"
     id="path22"
     inkscape:connector-curvature="0"
     style="fill:none" />
  <path
     style="display:inline;fill:#404040;fill-opacity:1;fill-rule:evenodd;stroke:none;stroke-width:2.02189279;stroke-linecap:square;stroke-linejoin:miter;stroke-miterlimit:4;stroke-dasharray:none;stroke-opacity:1"
     d="M 16.553814,1.084155 A 11.965281,11.82733 22.5 0 1 22.888251,16.509459 11.965281,11.82733 22.5 0 1 7.4984517,22.920967 L 12.020858,12.002926 Z"
     id="path3797-4"
     inkscape:connector-curvature="0" />
  <path
     inkscape:connector-curvature="0"
     style="display:inline;fill:#80cbc4;fill-opacity:1;fill-rule:evenodd;stroke:none;stroke-width:1.32200003;stroke-linecap:round;stroke-linejoin:bevel;stroke-miterlimit:4;stroke-dasharray:5.288, 2.644;stroke-dashoffset:0;stroke-opacity:1;paint-order:normal"
     d="M 16.552856,1.0939735 A 11.965281,11.82733 22.5 0 0 1.1663927,7.5221856 11.965281,11.82733 22.5 0 0 7.5150087,22.938041 L 12.03741,12.02 Z"
     id="path3797-8-1" />
  <path
     inkscape:connector-curvature="0"
     style="display:inline;fill:#009688;fill-opacity:0;fill-rule:evenodd;stroke:none;stroke-width:2.5;stroke-linecap:round;stroke-linejoin:round;stroke-miterlimit:4;stroke-dasharray:5, 2.5;stroke-dashoffset:0;stroke-opacity:1"
     d="M 16.551421,1.0724427 A 11.965281,11.82733 22.5 0 0 1.1649562,7.5006565 11.965281,11.82733 22.5 0 0 7.5135684,22.916513 L 12.035972,11.998471 Z"
     id="path3797-8-1-0" />
  <path
     inkscape:connector-curvature="0"
     style="display:inline;fill:#009688;fill-opacity:1;fill-rule:evenodd;stroke:#404040;stroke-width:0;stroke-linecap:square;stroke-linejoin:miter;stroke-miterlimit:4;stroke-dasharray:none;stroke-dashoffset:0;stroke-opacity:1"
     d="M 7.5335579,22.858721 C 1.5774389,20.38393 -1.2747565,13.537778 1.1220483,7.4689181 L 12.040093,11.991318 c -4.5065178,10.867411 0,0 -4.5065178,10.867411 z"
     id="path3797-8-1-3"
     sodipodi:nodetypes="cccc" />
  <path
     style="display:inline;fill:#404040;fill-opacity:1;fill-rule:evenodd;stroke:none;stroke-width:1.78999996;stroke-linecap:square;stroke-linejoin:miter;stroke-miterlimit:4;stroke-dasharray:none;stroke-opacity:1"
     d="M 20.450533,11.981001 A 7.9725781,8.0655673 0 0 1 12.478152,19.905 7.9725781,8.0655673 0 0 1 4.5153138,11.974611 h 7.9660202 z"
     id="path3797"
     inkscape:connector-curvature="0" />
  <path
     inkscape:connector-curvature="0"
     style="display:inline;fill:#404040;fill-opacity:1;fill-rule:evenodd;stroke:none;stroke-width:1.78999996;stroke-linecap:square;stroke-linejoin:miter;stroke-miterlimit:4;stroke-dasharray:none;stroke-opacity:1"
     d="M 20.444171,12.03561 A 7.9725781,8.0655673 0 0 0 12.47179,4.1116082 7.9725781,8.0655673 0 0 0 4.5089517,12.042 h 7.9660203 z"
     id="path3797-8" />
  <path
     style="display:inline;fill:#ff9900;fill-opacity:1;fill-rule:evenodd;stroke:none;stroke-width:0;stroke-linecap:square;stroke-linejoin:miter;stroke-miterlimit:4;stroke-dasharray:none;stroke-opacity:1"
     d="M 18.623613,12.019521 A 6.1388852,6.2104868 0 0 1 12.484881,18.121 6.1388852,6.2104868 0 0 1 6.3534944,12.0146 H 12.48733 Z"
     id="path3797-5"
     inkscape:connector-curvature="0" />
  <path
     inkscape:connector-curvature="0"
     style="display:inline;fill:#ffcc00;fill-opacity:1;fill-rule:evenodd;stroke:none;stroke-width:1.37830007;stroke-linecap:square;stroke-linejoin:miter;stroke-miterlimit:4;stroke-dasharray:none;stroke-opacity:1"
     d="M 18.618714,11.762079 A 6.1388852,6.2104868 0 0 0 12.479981,5.6605984 6.1388852,6.2104868 0 0 0 6.3485956,11.767 h 6.1338364 z"
     id="path3797-8-5" />
  <rect
     style="fill:#404040;fill-opacity:1;stroke:none;stroke-width:1.09155369;stroke-linecap:square;stroke-linejoin:round;stroke-miterlimit:4;stroke-dasharray:8.73242976, 1.09155372000000006;stroke-dashoffset:0;stroke-opacity:1;paint-order:normal"
     id="rect1159"
     width="14.492401"
     height="1.3617024"
     x="5.4468069"
     y="11.452887" />
</svg>
